<?xml version="1.0" ?><svg viewBox="0 0 64 64" xmlns="http://www.w3.org/2000/svg"><defs><style>.cls-1{fill:#beddf4;}.cls-2{fill:#231f20;}</style></defs><title/><g data-name="Cloud Refresh" id="Cloud_Refresh"><path class="cls-1" d="M48,36.38a7.4,7.4,0,0,1-2.34,5.39A8.18,8.18,0,0,1,40,44H24a7.81,7.81,0,0,1-8-7.62A7.4,7.4,0,0,1,18.34,31,8.18,8.18,0,0,1,24,28.76a7.81,7.81,0,0,1,8-7.62,7.81,7.81,0,0,1,8,7.62A7.81,7.81,0,0,1,48,36.38Z"/><path class="cls-2" d="M48,36.38H47a6.44,6.44,0,0,1-2,4.67,7.19,7.19,0,0,1-5,2H24a7.21,7.21,0,0,1-5-2,6.39,6.39,0,0,1,0-9.34,7.19,7.19,0,0,1,5-1.95h1v-1a6.4,6.4,0,0,1,2-4.66,7.28,7.28,0,0,1,9.94,0,6.4,6.4,0,0,1,2,4.66v1h1a7.17,7.17,0,0,1,5,2,6.4,6.4,0,0,1,2,4.66h2a8.42,8.42,0,0,0-2.65-6.11A9.2,9.2,0,0,0,40,27.76v1h1a8.42,8.42,0,0,0-2.65-6.11,9.29,9.29,0,0,0-12.7,0A8.42,8.42,0,0,0,23,28.76h1v-1a9.16,9.16,0,0,0-6.35,2.51,8.37,8.37,0,0,0,0,12.22A9.16,9.16,0,0,0,24,45H40a9.19,9.19,0,0,0,6.35-2.5A8.43,8.43,0,0,0,49,36.38Z"/><path class="cls-2" d="M43.27,54.53l-4.06,4.4L38.61,57a25.27,25.27,0,0,1-4.4.38A30.08,30.08,0,0,1,15.77,51,24.27,24.27,0,0,1,6.58,31.41,37.74,37.74,0,0,1,8.38,20.3a1,1,0,0,1,1.25-.66,1,1,0,0,1,.66,1.25A36,36,0,0,0,8.58,31.41,22.27,22.27,0,0,0,17,49.48a28.13,28.13,0,0,0,17.19,5.91,24.81,24.81,0,0,0,3.81-.3l-.58-1.88Z"/><path class="cls-2" d="M57.19,33.44a29.82,29.82,0,0,1-1.85,10.31,1,1,0,1,1-1.88-.69,27.78,27.78,0,0,0,1.73-9.62A25.13,25.13,0,0,0,45.32,13.1,23.68,23.68,0,0,0,31.07,8.61a30.21,30.21,0,0,0-5.35.49L26.24,11,20.46,9.47l4.23-4.23.51,1.91a33.28,33.28,0,0,1,5.87-.54,25.59,25.59,0,0,1,15.44,4.88A27.16,27.16,0,0,1,57.19,33.44Z"/></g></svg>